<svg width="83" height="83" viewBox="0 0 83 83" fill="none" xmlns="http://www.w3.org/2000/svg">
<path id="Vector" d="M58.855 0.334656H24.7543C11.4915 0.334656 0.744141 11.0837 0.744141 24.3486V58.4546C0.744141 71.7196 11.4915 82.4685 24.7543 82.4685H58.855C72.1178 82.4685 82.8652 71.7196 82.8652 58.4546V24.3486C82.8652 11.0837 72.1178 0.334656 58.855 0.334656ZM58.2959 49.7604C54.1312 53.9537 46.794 53.3247 43.37 48.698C40.5749 44.924 40.9662 39.3189 44.4321 35.8943C48.1497 32.2461 54.4247 32.0364 58.2959 35.8943C62.1812 39.7802 61.9297 46.1122 58.2959 49.7604ZM54.0334 32.6934H41.2317V64.6887C40.8684 65.5833 39.9879 67.4423 38.0313 68.952C35.3898 71.0067 32.5389 71.0905 31.6304 71.0905C25.7048 70.6152 21.526 65.4994 22.0291 60.4254C22.4485 56.288 25.9282 52.6538 30.5542 51.899C24.5727 50.655 20.9949 45.0778 22.0291 40.1716C22.8257 36.4255 26.2357 33.3783 30.5542 32.7074C25.1737 31.8408 21.498 26.9765 22.0291 22.0422C22.4903 17.7929 25.9843 14.1867 30.5542 13.5158H54.0194C58.1003 14.648 61.0631 18.0726 61.4825 22.0422C61.9716 26.7108 58.869 31.2956 54.0194 32.7074L54.0334 32.6934Z" fill="#FF5E2E"/>
</svg>
