<svg width="83" height="83" viewBox="0 0 83 83" fill="none" xmlns="http://www.w3.org/2000/svg">
<path id="Vector" d="M58.855 0.334473H24.7543C11.4915 0.334473 0.744141 11.0835 0.744141 24.3484V58.4544C0.744141 71.7194 11.4915 82.4683 24.7543 82.4683H58.855C72.1178 82.4683 82.8652 71.7194 82.8652 58.4544V24.3484C82.8652 11.0835 72.1178 0.334473 58.855 0.334473ZM58.2959 49.7602C54.1312 53.9535 46.794 53.3245 43.37 48.6978C40.5749 44.9239 40.9662 39.3187 44.4321 35.8941C48.1497 32.2459 54.4247 32.0363 58.2959 35.8941C62.1812 39.78 61.9297 46.112 58.2959 49.7602ZM54.0334 32.6932H41.2317V64.6885C40.8684 65.5831 39.9879 67.4421 38.0313 68.9518C35.3898 71.0065 32.5389 71.0904 31.6304 71.0904C25.7048 70.6151 21.526 65.4992 22.0291 60.4252C22.4485 56.2878 25.9282 52.6536 30.5542 51.8988C24.5727 50.6548 20.9949 45.0776 22.0291 40.1714C22.8257 36.4253 26.2357 33.3781 30.5542 32.7072C25.1737 31.8406 21.498 26.9763 22.0291 22.042C22.4903 17.7928 25.9843 14.1866 30.5542 13.5156H54.0194C58.1003 14.6478 61.0631 18.0724 61.4825 22.042C61.9716 26.7106 58.869 31.2954 54.0194 32.7072L54.0334 32.6932Z" fill="#C0C82F"/>
</svg>
