<svg width="83" height="83" viewBox="0 0 83 83" fill="none" xmlns="http://www.w3.org/2000/svg">
<g id="Group 18">
<path id="Vector" d="M58.855 0.633865H24.7543C11.4915 0.633865 0.744141 11.3826 0.744141 24.6479V58.7537C0.744141 72.0189 11.4915 82.7677 24.7543 82.7677H58.855C72.118 82.7677 82.8652 72.0189 82.8652 58.7537V24.6479C82.8652 11.3826 72.118 0.633865 58.855 0.633865ZM43.356 58.2366C42.3218 55.3997 41.2736 52.5478 40.2394 49.7095H27.7731C26.739 52.5478 25.6908 55.3997 24.6566 58.2366H18.4235C22.2387 46.1455 26.0401 34.0543 29.8555 21.9779H39.2052C43.356 34.0691 47.5207 46.1603 51.6716 58.2366H43.356ZM62.0695 58.2366H54.7881V30.505H62.0695V58.2366ZM63.1036 24.1026C62.8242 26.7309 60.4762 28.659 57.9047 28.3655C55.3331 28.0719 53.4603 25.6685 53.754 23.0268C54.0334 20.3985 56.3813 18.469 58.9529 18.7626C61.5244 19.0561 63.3971 21.4608 63.1036 24.1026Z" fill="#FF5E2E"/>
<path id="Vector_2" d="M29.8418 42.2326H38.1573C36.7738 37.9684 35.3901 33.7055 34.0065 29.4278C32.6229 33.6921 31.2393 37.9549 29.8558 42.2326H29.8418Z" fill="#FF5E2E"/>
</g>
</svg>