<svg width="83" height="84" viewBox="0 0 83 84" fill="none" xmlns="http://www.w3.org/2000/svg">
<g id="Group 17">
<path id="Vector" d="M58.855 0.933075H24.7543C11.4915 0.933075 0.744141 11.6818 0.744141 24.9471V59.0529C0.744141 72.3182 11.4915 83.0669 24.7543 83.0669H58.855C72.118 83.0669 82.8652 72.3182 82.8652 59.0529V24.9471C82.8652 11.6818 72.118 0.933075 58.855 0.933075ZM36.7315 43.3424C31.3089 48.5694 23.6783 46.6264 23.217 46.5012V58.0888H15.9357V22.2771C27.6753 20.5577 37.4023 23.2277 39.8482 28.5947C40.1695 29.3083 40.9242 31.293 40.8824 33.8647C40.7985 39.3017 37.2486 42.8388 36.7315 43.3424ZM63.7605 51.7564C63.1735 54.0346 61.4405 55.3488 60.6439 55.9641C54.9698 60.297 46.4446 57.5017 45.0471 57.0116V50.6941C46.1652 51.0024 53.125 52.9171 55.445 51.743C55.7105 51.6164 56.3394 51.2959 56.4792 50.6941C56.6888 49.8552 55.8223 48.9747 55.445 48.5842C54.2989 47.437 53.2229 47.2417 51.2942 46.4729C49.0581 45.5923 47.9401 45.1453 47.1433 44.3617C45.2427 42.517 45.103 39.8753 45.0611 39.093C45.0331 38.4359 44.8514 35.0806 47.1433 32.7741C48.9602 30.9577 51.2802 30.8311 54.4248 30.6642C56.2974 30.5659 59.2184 30.6359 62.7403 31.7117V38.0307C61.6082 37.5971 53.8098 34.6901 52.3424 36.9818C51.8392 37.764 52.2585 38.8695 52.3424 39.093C53.5303 42.2235 58.4358 40.8959 61.6921 44.3617C63.453 46.236 64.4313 49.1847 63.7745 51.7282L63.7605 51.7564Z" fill="#FF5E2E"/>
<path id="Vector_2" d="M23.2168 29.657V40.1823C27.4794 41.3146 31.3367 39.7635 32.5665 37.0235C33.4889 34.9553 32.6085 32.9141 32.5665 32.8171C31.3367 30.0771 27.4794 28.526 23.2168 29.657Z" fill="#FF5E2E"/>
</g>
</svg>