<svg width="83" height="83" viewBox="0 0 83 83" fill="none" xmlns="http://www.w3.org/2000/svg">
<g id="Group 16">
<path id="Vector" d="M58.855 0.53125H24.7543C11.4915 0.53125 0.744141 11.28 0.744141 24.5453V58.6511C0.744141 71.9164 11.4915 82.6651 24.7543 82.6651H58.855C72.118 82.6651 82.8652 71.9164 82.8652 58.6511V24.5453C82.8652 11.28 72.118 0.53125 58.855 0.53125ZM40.7985 43.8764C35.4458 49.1047 27.8989 47.1617 27.4517 47.0352V58.6228H20.2682V22.8259C31.868 21.1065 41.4693 23.7765 43.873 29.1435C44.1945 29.8571 44.9352 31.8418 44.8934 34.4135C44.8095 39.8505 41.3156 43.3876 40.7845 43.8912L40.7985 43.8764ZM65.186 38.3128C64.5152 38.0758 62.4328 37.447 60.057 38.3128C58.4917 38.8864 57.4715 39.8653 56.9823 40.4241V58.3292H48.7646V30.9477H55.9481V34.1065C57.4016 31.9535 59.4001 31.1712 60.057 30.9477C62.4887 30.1223 64.5432 30.7228 65.186 30.9477V38.3128Z" fill="#C0C82F"/>
<path id="Vector_2" d="M26.4707 29.1031V39.2419C30.5229 40.3326 34.1982 38.838 35.3694 36.1989C36.2445 34.2062 35.4098 32.2404 35.3694 32.1461C34.1982 29.5071 30.5229 28.0125 26.4707 29.1031Z" fill="#C0C82F"/>
</g>
</svg>
