<svg width="83" height="83" viewBox="0 0 83 83" fill="none" xmlns="http://www.w3.org/2000/svg">
<g id="Group 16">
<path id="Vector" d="M58.855 0.531494H24.7543C11.4915 0.531494 0.744141 11.2802 0.744141 24.5455V58.6513C0.744141 71.9166 11.4915 82.6653 24.7543 82.6653H58.855C72.118 82.6653 82.8652 71.9166 82.8652 58.6513V24.5455C82.8652 11.2802 72.118 0.531494 58.855 0.531494ZM40.7985 43.8766C35.4458 49.1049 27.8989 47.162 27.4517 47.0354V58.623H20.2682V22.8261C31.868 21.1067 41.4693 23.7767 43.873 29.1437C44.1945 29.8573 44.9352 31.842 44.8934 34.4137C44.8095 39.8507 41.3156 43.3879 40.7845 43.8914L40.7985 43.8766ZM65.186 38.3131C64.5152 38.0761 62.4328 37.4473 60.057 38.3131C58.4917 38.8867 57.4715 39.8655 56.9823 40.4243V58.3295H48.7646V30.9479H55.9481V34.1067C57.4016 31.9538 59.4001 31.1715 60.057 30.9479C62.4887 30.1226 64.5432 30.7231 65.186 30.9479V38.3131Z" fill="#FF5E2E"/>
<path id="Vector_2" d="M26.4707 29.1033V39.2421C30.5229 40.3328 34.1982 38.8382 35.3694 36.1991C36.2445 34.2064 35.4098 32.2406 35.3694 32.1463C34.1982 29.5073 30.5229 28.0127 26.4707 29.1033Z" fill="#FF5E2E"/>
</g>
</svg>