<svg width="47" height="59" viewBox="0 0 47 59" fill="none" xmlns="http://www.w3.org/2000/svg">
<path d="M26.8021 1.34409V0.166138C29.4192 0.166138 40.79 0.166138 46.9267 0.166138C46.9267 4.37313 46.9267 50.4818 46.9267 58.3068H45.8437H45.1218H26.0801L5.23352 12.703C4.33108 10.5995 3.15789 4.9621 5.68475 1.68065C5.68475 1.59651 5.68475 1.42823 5.68475 1.34409H2.61642C2.61642 2.52205 2.61642 5.04624 2.61642 6.89732C2.61642 11.0202 2.61642 16.8258 2.61642 23.4729C2.61642 42.2361 12.7239 54.0998 20.9361 57.2971V58.3068C18.2288 58.3068 7.03842 58.3068 0.811523 58.3068C0.811523 54.0998 0.811523 7.99114 0.811523 0.166138H19.3117L35.1948 34.9159H45.1218C45.1218 10.6836 34.9241 4.5414 26.8021 1.34409Z" fill="#f5185f"/>
</svg>
