<svg width="56" height="59" viewBox="0 0 56 59" fill="none" xmlns="http://www.w3.org/2000/svg">
<path d="M55.1091 0.375762C55.1091 1.46958 55.1091 15.1002 55.1091 16.6989H54.3872C43.1065 5.34001 25.96 1.55374 17.116 1.55374C5.20365 1.55374 4.66218 7.35937 9.44517 11.8188C14.2281 16.2782 25.1478 21.9997 36.5187 19.0548C36.5187 20.1486 36.5187 29.993 36.5187 31.0027H35.8869C29.0283 17.7927 20.3648 17.7927 20.3648 27.5529V58.5164H0.691406V0.291626H36.0674L35.2552 0.375762C36.3382 0.375762 37.4211 0.375762 38.504 0.375762C43.7383 0.375762 48.9725 0.375762 55.1091 0.375762Z" fill="#f5185f"/>
</svg>
