<svg width="69" height="59" viewBox="0 0 69 59" fill="none" xmlns="http://www.w3.org/2000/svg">
<path d="M34.5033 0.585693C53.2742 0.585693 68.5256 13.6273 68.5256 29.6981C68.5256 45.7688 53.2742 58.7263 34.5033 58.7263C15.7324 58.7263 0.480957 45.7688 0.480957 29.6981C0.480957 13.6273 15.7324 0.585693 34.5033 0.585693ZM50.3864 50.2282C59.0499 50.2282 58.5084 41.2252 49.0327 30.1188C39.6473 19.0123 24.9373 10.0094 16.1836 10.0094C16.1836 9.92522 16.1836 9.75691 16.1836 9.67277C19.6129 5.97061 25.6593 3.36228 32.8789 3.27814V1.67951C18.8909 2.52091 10.9494 10.3459 10.2274 13.6274C9.23472 17.8343 11.6713 23.3034 17.447 30.1188C26.9227 41.2252 41.6326 50.2282 50.3864 50.2282Z" fill="#f5185f"/>
</svg>
