<svg width="83" height="83" viewBox="0 0 83 83" fill="none" xmlns="http://www.w3.org/2000/svg">
<g id="Group 19">
<path id="Vector" d="M51.9651 53.0403V30.1452L36.8994 41.6062L51.9651 53.0403Z" fill="#FF5E2E"/>
<path id="Vector_2" d="M58.855 0.232269H24.7543C11.4915 0.232269 0.744141 10.981 0.744141 24.2463V58.3521C0.744141 71.6174 11.4915 82.3661 24.7543 82.3661H58.855C72.118 82.3661 82.8652 71.6174 82.8652 58.3521V24.2463C82.8652 10.981 72.118 0.232269 58.855 0.232269ZM68.5961 61.9727C68.5961 62.1545 68.4982 62.308 68.3306 62.3915L52.6778 69.7727C52.4822 69.9814 52.2445 70.1632 51.9789 70.2898C51.6855 70.4284 51.3641 70.485 51.0566 70.485C50.5115 70.485 49.9804 70.2897 49.5612 69.8979L26.5992 49.4627L16.8582 56.871C16.4528 57.178 15.9637 57.3315 15.4885 57.3315C14.8317 57.3315 14.1887 57.0528 13.7416 56.5074L9.78648 51.7545C8.9759 50.7904 9.08764 49.3079 10.024 48.4704L17.7386 41.5793L10.1638 34.8416C9.22738 34.0028 9.11564 32.5351 9.92622 31.571L13.8674 26.8463C14.6499 25.9092 16.0056 25.7557 16.9699 26.4828L26.5153 33.7227L49.5332 13.1623C50.204 12.5604 51.1405 12.4069 51.9651 12.7839C52.2445 12.9105 52.4682 13.0923 52.6638 13.2875L68.3306 20.6822C68.4982 20.7523 68.5961 20.9192 68.5961 21.101V61.9579V61.9727Z" fill="#FF5E2E"/>
<path id="Vector_3" d="M10.9458 49.518C10.5684 49.8681 10.5125 50.4686 10.8479 50.8604L14.803 55.612C15.1105 55.9756 15.6276 56.0456 16.005 55.7521L25.5224 48.5122L18.7862 42.5151L10.9458 49.518Z" fill="#FF5E2E"/>
<path id="Vector_4" d="M50.4838 68.8639C50.7494 69.1008 51.0848 69.1574 51.4063 69.0039C51.7416 68.8491 51.9512 68.5286 51.9512 68.1502V55.2485C51.9512 54.955 51.8115 54.6614 51.5879 54.4945L35.7535 42.4868L27.7314 48.5957L50.4978 68.8639H50.4838Z" fill="#FF5E2E"/>
<path id="Vector_5" d="M26.5852 35.5404L19.835 41.5793L26.6551 47.6585L34.5932 41.621L26.5852 35.5404Z" fill="#FF5E2E"/>
<path id="Vector_6" d="M51.5738 28.691C51.8114 28.5092 51.9511 28.2305 51.9511 27.9222V14.9369C51.9511 14.5451 51.7415 14.2247 51.4062 14.0698C51.3363 14.0429 51.1965 13.9863 51.0428 13.9863C50.8751 13.9863 50.6793 14.0429 50.4697 14.2099L27.6475 34.5898L35.7393 40.7256L51.5738 28.6775V28.691Z" fill="#FF5E2E"/>
<path id="Vector_7" d="M16.1322 27.6152C15.7549 27.3351 15.2518 27.3917 14.9443 27.7538L11.0032 32.4786C10.6817 32.8704 10.7097 33.4709 11.1011 33.8075L18.7877 40.6556L25.4541 34.7016L16.1322 27.6286V27.6152Z" fill="#FF5E2E"/>
<path id="Vector_8" d="M18.7871 42.5151L25.5233 48.5122L26.6554 47.6599L19.8353 41.5793L18.7871 42.5151Z" fill="#FF5E2E"/>
<path id="Vector_9" d="M35.74 40.7404L27.6481 34.6033L26.5859 35.5404L34.5941 41.621L35.74 40.7404Z" fill="#FF5E2E"/>
</g>
</svg>
