<svg width="83" height="83" viewBox="0 0 83 83" fill="none" xmlns="http://www.w3.org/2000/svg">
<g id="Group 19">
<path id="Vector" d="M51.9651 53.0407V30.1455L36.8994 41.6065L51.9651 53.0407Z" fill="#C0C82F"/>
<path id="Vector_2" d="M58.855 0.232422H24.7543C11.4915 0.232422 0.744141 10.9812 0.744141 24.2465V58.3522C0.744141 71.6175 11.4915 82.3663 24.7543 82.3663H58.855C72.118 82.3663 82.8652 71.6175 82.8652 58.3522V24.2465C82.8652 10.9812 72.118 0.232422 58.855 0.232422ZM68.5961 61.9729C68.5961 62.1546 68.4982 62.3081 68.3306 62.3916L52.6778 69.7729C52.4822 69.9816 52.2445 70.1633 51.9789 70.2899C51.6855 70.4286 51.3641 70.4851 51.0566 70.4851C50.5115 70.4851 49.9804 70.2899 49.5612 69.8981L26.5992 49.4629L16.8582 56.8711C16.4528 57.1781 15.9637 57.3316 15.4885 57.3316C14.8317 57.3316 14.1887 57.0529 13.7416 56.5076L9.78648 51.7546C8.9759 50.7905 9.08764 49.3081 10.024 48.4706L17.7386 41.5794L10.1638 34.8418C9.22738 34.0029 9.11564 32.5353 9.92622 31.5712L13.8674 26.8465C14.6499 25.9093 16.0056 25.7559 16.9699 26.4829L26.5153 33.7228L49.5332 13.1624C50.204 12.5606 51.1405 12.4071 51.9651 12.7841C52.2445 12.9106 52.4682 13.0924 52.6638 13.2877L68.3306 20.6824C68.4982 20.7524 68.5961 20.9194 68.5961 21.1011V61.958V61.9729Z" fill="#C0C82F"/>
<path id="Vector_3" d="M10.9458 49.518C10.5684 49.8681 10.5125 50.4687 10.8479 50.8605L14.803 55.6121C15.1105 55.9757 15.6276 56.0457 16.005 55.7521L25.5224 48.5122L18.7862 42.5151L10.9458 49.518Z" fill="#C0C82F"/>
<path id="Vector_4" d="M50.4838 68.8639C50.7494 69.1009 51.0848 69.1574 51.4063 69.0039C51.7416 68.8491 51.9512 68.5286 51.9512 68.1503V55.2485C51.9512 54.955 51.8115 54.6615 51.5879 54.4945L35.7535 42.4868L27.7314 48.5957L50.4978 68.8639H50.4838Z" fill="#C0C82F"/>
<path id="Vector_5" d="M26.5852 35.5405L19.835 41.5794L26.6551 47.6586L34.5932 41.6212L26.5852 35.5405Z" fill="#C0C82F"/>
<path id="Vector_6" d="M51.5738 28.691C51.8114 28.5092 51.9511 28.2305 51.9511 27.9222V14.9369C51.9511 14.5451 51.7415 14.2247 51.4062 14.0698C51.3363 14.0429 51.1965 13.9863 51.0428 13.9863C50.8751 13.9863 50.6793 14.0429 50.4697 14.2099L27.6475 34.5898L35.7393 40.7256L51.5738 28.6775V28.691Z" fill="#C0C82F"/>
<path id="Vector_7" d="M16.1322 27.6155C15.7549 27.3355 15.2518 27.392 14.9443 27.7542L11.0032 32.4789C10.6817 32.8708 10.7097 33.4713 11.1011 33.8079L18.7877 40.656L25.4541 34.7019L16.1322 27.629V27.6155Z" fill="#C0C82F"/>
<path id="Vector_8" d="M18.7871 42.5154L25.5233 48.5125L26.6554 47.6602L19.8353 41.5796L18.7871 42.5154Z" fill="#C0C82F"/>
<path id="Vector_9" d="M35.74 40.7406L27.6481 34.6035L26.5859 35.5406L34.5941 41.6213L35.74 40.7406Z" fill="#C0C82F"/>
</g>
</svg>
